<?xml version="1.0" encoding="utf-8"?>
<!-- Generator: Adobe Illustrator 26.0.0, SVG Export Plug-In . SVG Version: 6.00 Build 0)  -->
<svg version="1.1"
	 id="svg8" inkscape:version="0.92.3 (2405546, 2018-03-11)" sodipodi:docname="WWE SmackDown (2001-2008) Logo.svg" xmlns:cc="http://creativecommons.org/ns#" xmlns:dc="http://purl.org/dc/elements/1.1/" xmlns:inkscape="http://www.inkscape.org/namespaces/inkscape" xmlns:rdf="http://www.w3.org/1999/02/22-rdf-syntax-ns#" xmlns:sodipodi="http://sodipodi.sourceforge.net/DTD/sodipodi-0.dtd" xmlns:svg="http://www.w3.org/2000/svg"
	 xmlns="http://www.w3.org/2000/svg" xmlns:xlink="http://www.w3.org/1999/xlink" x="0px" y="0px" viewBox="0 0 750 238.3"
	 style="enable-background:new 0 0 750 238.3;" xml:space="preserve">
<style type="text/css">
	.st0{fill:#007CCA;}
	.st1{fill:#FFFFFF;}
</style>
<sodipodi:namedview  bordercolor="#666666" borderopacity="1.0" id="base" inkscape:current-layer="layer1" inkscape:cx="500" inkscape:cy="500" inkscape:document-units="px" inkscape:object-paths="false" inkscape:pagecheckerboard="true" inkscape:pageopacity="0.0" inkscape:pageshadow="2" inkscape:showpageshadow="false" inkscape:snap-global="true" inkscape:window-height="705" inkscape:window-maximized="1" inkscape:window-width="1366" inkscape:window-x="-8" inkscape:window-y="-8" inkscape:zoom="0.476" pagecolor="#ffffff" showgrid="false" showguides="false" units="px">
	</sodipodi:namedview>
<g id="layer1" transform="translate(0,-32.416667)" inkscape:groupmode="layer" inkscape:label="Layer 1">
	<g id="g825" transform="translate(9.9999999e-7,2.0000001e-6)">
		<path id="path1537" inkscape:connector-curvature="0" sodipodi:nodetypes="ccccccc" class="st0" d="M750,32.4l-84.2,238.3H0
			l45.3-125.6h6.2L92.1,32.4L750,32.4z"/>
		
			<path id="rect1543" inkscape:connector-curvature="0" sodipodi:nodetypes="ccccccccccccccccccccccccccccccccccccccccccccccssscccccccccccccccccccccccccsccsccccsszccccccccccccccccccsccscsccssccssccccccccccccccccccccccccccccccccccccccccccccc" class="st1" d="
			M102.3,40.8l-2.2,7.1h632l2.3-7.1H102.3z M98.3,56l-31.6,88.8h533.1l-1.9,7.1H56.7l-33.7,96h9.7L64.2,158h545.7l-1.5,27.7h44.5
			l16.3-27.7h26L731.2,56h-10.6h-5.3l-12.8,35.9l-53,89.9h-38.1l4.9-89.6L629.1,56h-2.9h-6.6l-45.8,38.6l23.3,42.9h-40.6l-14.7-31
			h-3.9l-11.4,31h-31.8L522.4,56h-7.3l-8,21.7h-23.1h-16.3H452l-12.5,33.1h14.1h18.9h22.5l-9.7,26.6h-66.5c-11,0-18.2-7.3-12.6-22.5
			c4.7-12.7,9.1-25.7,14.1-38.2c3.8-9.4,8.7-16.7,16.8-20.8h-27.7c8.9,0,4.1,13.3,3.5,15.1c-0.7,1.8-24.6,66.3-24.6,66.3h-32.7
			l12.6-33.6H340l-12.3,33.6h-31.8c0,0,23.4-64.5,24.1-66.3c0.7-1.8,5.7-15.1,14.7-15.1h-19l-30,81.5h-31l18.4-50.9l-29.7,50.9
			h-24.8l5.8-50.9l-18.3,50.9H174L203.4,56h-11.7l-8.3,21.7h-52.8l-2,5.3h39.5c9.6,0,16.8,4.5,13,15.7l-7.1,21.2
			c-5.8,17.4-18.8,17.6-29.8,17.6H76.4l9-25.3h59.4l2-6.1h-41.6c-14.5,0-14.9-7.7-10.4-19.3c2.6-6.5,4.7-12.5,7.7-19.6
			s6.5-9.5,7.9-11.1L98.3,56z M249.2,56l-4.9,43.6L271,56H249.2z M556.2,56l-9.8,26.6h4.2L581.6,56H556.2z M349.8,77.7l-2.3,6h28.3
			l2.4-6H349.8z M72.8,162.1l-29.3,81.4h106.7c7.7,0,14.4-10.5,16.7-16.9c2.3-6.4,14-40.7,14-40.7c4.2-15.5-1.1-23.7-18.7-23.7
			L72.8,162.1z M233.5,162.1c-27,0-34.8,10.5-39.6,20.8l-16,44.5c-3.4,12.8,0.8,16.1,8.1,16.1h84.4c7.7,0,14.4-10.5,16.7-16.9
			c2.3-6.4,14-40.7,14-40.7c4.2-15.5-1.1-23.7-18.7-23.7L233.5,162.1z M315.9,162.1l-7,81.4h38.8l31.1-50.3l-3.8,50.3h37.3
			l51.1-81.4h-34.8l-25.8,47.2l5-47.2h-34.9l-29,47.2l7.1-47.2H315.9z M472,162.1l-29.2,81.4h34.9l16.9-46l20.4,46h38.8l29.5-81.4
			h-35.1l-13.8,42.4l-18.6-42.4H472z M99.9,186.2h44l-12.7,38.5H86.2L99.9,186.2z M229,186.2h35.2l-12.7,38.5h-36.3L229,186.2z
			 M581.2,196.7l-18,46.8H655l16.9-46.8H581.2z M18.7,250.6l-2.4,7.5h638.8l2.8-7.5H18.7z"/>
	</g>
</g>
</svg>
