<?xml version="1.0" encoding="utf-8"?>
<!-- Generator: Adobe Illustrator 28.4.1, SVG Export Plug-In . SVG Version: 6.00 Build 0)  -->
<svg version="1.1"
	 id="WWE_Raw" xmlns:svg="http://www.w3.org/2000/svg" xmlns:sodipodi="http://sodipodi.sourceforge.net/DTD/sodipodi-0.dtd" xmlns:inkscape="http://www.inkscape.org/namespaces/inkscape"
	 xmlns="http://www.w3.org/2000/svg" xmlns:xlink="http://www.w3.org/1999/xlink" x="0px" y="0px" viewBox="0 0 950 344"
	 style="enable-background:new 0 0 950 344;" xml:space="preserve">
<style type="text/css">
	.st0{fill:#B9011F;}
	.st1{fill:#FFFFFF;}
</style>
<g id="_x32_025" transform="translate(-0.20026343)" inkscape:groupmode="layer" inkscape:label="Layer 1">
	<g id="BG">
		<g>
			<path id="path68_00000131356018375617776520000009235225236044306337_" sodipodi:nodetypes="ccccc" class="st0" d="M950.2,0H0.2
				l0,79.3l475.3-39.9L950.2,0z"/>
			<path id="path66_00000055665682745366583730000001673390660789693336_" sodipodi:nodetypes="cccc" class="st0" d="M0.2,344h950
				v-76.4L0.2,344z"/>
		</g>
	</g>
	<path id="RAW" class="st1" d="M869.5,26.2v119.1L801.2,31.9l-52.6,4.3l-69.6,125l0-119.3L599,48.6v192.8L495.3,57.1l-91.6,7.6
		L299.3,263.8l0-19.3c0-14.5-6.1-27.5-19.2-35.7c6-5.1,11.3-10.8,14.7-18.7c4.2-9.8,6.2-22.4,6.2-40.4c0-25.1-4.6-41.1-15.7-53
		C268,78,238.2,78.4,206.7,81L0.2,98v224.6l82.6-6.8v-52.3l98.7-8.1c10.9-0.9,18.8-1.6,24.1-1.7c5.3-0.1,8,0.5,8.8,1.1
		c2,1.4,2.2,2.2,2.2,4v46.1L371.4,292l20.1-35.5l113.6-9.4l20,32.2l180.8-14.9l68.5-123.8L842,253.1l108.2-8.9V19.6L869.5,26.2z
		 M205.5,182.5L82.8,192.6v-31l122.8-10.1c3.5-0.3,7.3,0.2,8.9,2c1.6,1.8,2.2,2.9,2.6,4.7c0.4,1.8,0.4,4.5,0.4,8.5
		c0,6.2-0.3,9-3.1,12.8C213.2,181.2,209.3,182.2,205.5,182.5z M426.1,184.4l22.2-43.7l23.3,39.9L426.1,184.4z"/>
</g>
</svg>
